<svg width="99" height="43" viewBox="0 0 99 43" fill="none" xmlns="http://www.w3.org/2000/svg">
<path d="M34.2656 0V22.1898H73.6563V0H34.2656ZM60.4943 3.00925H65.0082L63.9126 6.0185H59.3988L60.4943 3.00925ZM49.2119 3.00925H53.7257L52.6302 6.0185H48.1164L49.2119 3.00925ZM42.0638 7.14583H46.5776L45.4821 10.1551H40.9683L42.0638 7.14583ZM38.7772 16.1713L39.8727 13.1621H44.3866L43.2911 16.1713H38.7772ZM43.3229 19.1806L47.7027 7.14583H52.2166L47.8368 19.1806H43.3229ZM50.0596 16.1713L51.1552 13.1621H55.669L54.5735 16.1713H50.0596ZM65.8559 16.1713H61.3421L62.4376 13.1621H66.9514L65.8559 16.1713ZM68.047 10.1528H62.4058L59.1215 19.1783H54.6076L57.8919 10.1528H52.2507L53.3462 7.14356H69.1425L68.047 10.1528Z" fill="#03CEA4"/>
<path d="M1.32812 18.7624H6.17384V10.371H1.32812V6.94355H10.5468V18.7624H15.0379V22.1898H1.32812V18.7624ZM8.36031 4.99344C7.37617 4.99344 6.69204 4.79116 6.30566 4.38659C5.92155 3.98203 5.72836 3.49564 5.72836 2.92515V2.06829C5.72836 1.47735 5.92155 0.986416 6.30566 0.59094C6.69204 0.197738 7.37617 0 8.36031 0C9.34446 0 10.0309 0.197738 10.415 0.59094C10.7991 0.986416 10.9923 1.47735 10.9923 2.06829V2.92515C10.9923 3.49564 10.7991 3.9843 10.415 4.38659C10.0309 4.79116 9.34673 4.99344 8.36031 4.99344Z" fill="#03CEA4"/>
<path d="M23.6722 22.1897C22.0971 22.1897 20.9243 21.7783 20.1561 20.951C19.3879 20.126 19.0038 19.0737 19.0038 17.7963V10.3709H14.8672V6.94347H17.556C18.206 6.94347 18.6697 6.8162 18.9447 6.55936C19.2197 6.30253 19.3583 5.82978 19.3583 5.14111V1.56592H23.3767V6.94347H29.3157V10.3709H23.3767V18.7623H29.3157V22.1897H23.6722Z" fill="#03CEA4"/>
<path d="M7.23902 43.0001C5.54347 43.0001 4.07294 42.7432 2.8206 42.2318C1.57054 41.7205 0.629579 41.0204 0 40.134L2.4524 37.8589C3.04334 38.5089 3.73883 39.0158 4.5366 39.3794C5.33437 39.7431 6.24578 39.9272 7.26857 39.9272C8.13452 39.9272 8.8141 39.7954 9.30731 39.5294C9.80052 39.2635 10.046 38.8544 10.046 38.3021C10.046 37.868 9.87779 37.568 9.54369 37.402C9.20958 37.2339 8.74592 37.102 8.15498 37.0043L5.70257 36.6202C5.01163 36.5225 4.37296 36.3679 3.78202 36.1611C3.19108 35.9542 2.67969 35.6747 2.24557 35.3178C1.81146 34.9633 1.46826 34.5314 1.21143 34.0178C0.954596 33.5064 0.827316 32.8859 0.827316 32.1563C0.827316 30.5608 1.43871 29.3107 2.65923 28.4038C3.87975 27.497 5.59348 27.0447 7.80041 27.0447C9.29595 27.0447 10.5733 27.247 11.6256 27.6515C12.6779 28.0561 13.5212 28.6311 14.153 29.3789L11.9665 31.8608C11.5142 31.3676 10.9324 30.954 10.2233 30.6199C9.51414 30.2858 8.65728 30.1176 7.65268 30.1176C5.95713 30.1176 5.11163 30.629 5.11163 31.654C5.11163 32.1086 5.27755 32.4177 5.61393 32.5859C5.94804 32.7541 6.4117 32.8859 7.00264 32.9836L9.4255 33.3677C10.1142 33.4655 10.7551 33.62 11.3461 33.8269C11.937 34.0337 12.4552 34.3132 12.8961 34.6701C13.3393 35.0246 13.6894 35.4588 13.9462 35.9701C14.2008 36.4815 14.3303 37.102 14.3303 37.8316C14.3303 39.4272 13.7144 40.6886 12.4847 41.6136C11.2529 42.5387 9.50505 43.0023 7.24129 43.0023L7.23902 43.0001Z" fill="#03CEA4"/>
<path d="M24.1527 43.0001C22.9708 43.0001 21.9071 42.8182 20.9616 42.4546C20.0161 42.0909 19.2138 41.5636 18.5547 40.8727C17.8933 40.184 17.3887 39.3453 17.0318 38.3612C16.6773 37.377 16.5 36.2633 16.5 35.0224C16.5 33.7814 16.6773 32.6677 17.0318 31.6836C17.3864 30.6994 17.8933 29.863 18.5547 29.1721C19.2138 28.4834 20.0161 27.9561 20.9616 27.5902C21.9071 27.2265 22.9708 27.0447 24.1527 27.0447C25.3346 27.0447 26.3982 27.2265 27.3438 27.5902C28.2893 27.9561 29.0916 28.4811 29.753 29.1721C30.4121 29.863 30.9189 30.6994 31.2758 31.6836C31.6303 32.6677 31.8076 33.7814 31.8076 35.0224C31.8076 36.2633 31.6303 37.377 31.2758 38.3612C30.9212 39.3453 30.4144 40.184 29.753 40.8727C29.0938 41.5614 28.2893 42.0887 27.3438 42.4546C26.3982 42.8205 25.3346 43.0001 24.1527 43.0001ZM24.1527 39.7499C25.1368 39.7499 25.905 39.4453 26.4573 38.8339C27.0096 38.2225 27.2847 37.3566 27.2847 36.2338V33.8109C27.2847 32.6882 27.0096 31.8222 26.4573 31.2108C25.905 30.5994 25.1368 30.2948 24.1527 30.2948C23.1685 30.2948 22.4003 30.5994 21.848 31.2108C21.2957 31.8222 21.0207 32.6882 21.0207 33.8109V36.2338C21.0207 37.3566 21.2957 38.2225 21.848 38.8339C22.4003 39.4453 23.1663 39.7499 24.1527 39.7499Z" fill="#03CEA4"/>
<path d="M43.8957 39.868H43.7184C43.3843 40.734 42.857 41.4726 42.1365 42.084C41.4183 42.6932 40.4478 43 39.2273 43C38.4977 43 37.8294 42.8773 37.2181 42.6318C36.6067 42.3863 36.0862 42.0159 35.6521 41.5226C35.2179 41.0294 34.8793 40.4294 34.6338 39.7203C34.3884 39.0111 34.2656 38.1952 34.2656 37.2679V27.3992H38.6386V36.6769C38.6386 38.6475 39.4954 39.6316 41.2092 39.6316C41.5433 39.6316 41.8728 39.5862 42.1979 39.4998C42.5229 39.4112 42.8093 39.2725 43.0547 39.0862C43.3002 38.8998 43.5025 38.6679 43.6593 38.3929C43.8161 38.1179 43.8957 37.7929 43.8957 37.4179V27.4014H48.2686V42.6477H43.8957V39.8703V39.868Z" fill="#03CEA4"/>
<path d="M51.4609 39.218H54.977V30.8266H51.4609V27.3992H59.35V31.713H59.5568C59.6955 31.1607 59.8864 30.6243 60.1341 30.1039C60.3796 29.5811 60.6955 29.1197 61.0796 28.7151C61.4637 28.3106 61.9319 27.9901 62.4842 27.756C63.0365 27.5196 63.6866 27.4014 64.4344 27.4014H65.8822V31.4198H62.632C61.5478 31.4198 60.7296 31.738 60.1796 32.3767C59.6273 33.0154 59.3523 33.795 59.3523 34.7177V39.2202H64.3753V42.6477H51.4632V39.2202L51.4609 39.218Z" fill="#03CEA4"/>
<path d="M75.4797 43.0001C74.2773 43.0001 73.2 42.8182 72.2431 42.4546C71.2863 42.0909 70.4794 41.5636 69.8203 40.8727C69.1612 40.184 68.6543 39.3453 68.2975 38.3612C67.9429 37.377 67.7656 36.2633 67.7656 35.0224C67.7656 33.7814 67.9429 32.6677 68.2975 31.6836C68.652 30.6994 69.1589 29.863 69.8203 29.1721C70.4794 28.4834 71.2885 27.9561 72.2431 27.5902C73.1977 27.2265 74.2682 27.0447 75.4501 27.0447C77.1252 27.0447 78.4685 27.3856 79.4822 28.0629C80.4958 28.7425 81.2709 29.6448 81.8027 30.7676L78.4344 32.5995C78.1594 32.0086 77.798 31.5176 77.3548 31.1222C76.9116 30.729 76.2774 30.5312 75.4501 30.5312C74.4455 30.5312 73.6728 30.8222 73.1295 31.4017C72.5886 31.9836 72.3181 32.7745 72.3181 33.7791V36.2611C72.3181 37.2657 72.5886 38.0589 73.1295 38.6385C73.6705 39.2203 74.4637 39.509 75.5069 39.509C76.3524 39.509 77.0184 39.3112 77.5025 38.918C77.9843 38.5248 78.3935 38.0112 78.7276 37.3816L82.0368 39.2726C81.4845 40.3954 80.6822 41.2977 79.6276 41.9773C78.573 42.6569 77.1911 42.9955 75.4774 42.9955L75.4797 43.0001Z" fill="#03CEA4"/>
<path d="M91.7145 43C89.153 43 87.2142 42.2909 85.8937 40.8726C84.5732 39.4543 83.9141 37.5247 83.9141 35.0814C83.9141 33.8404 84.0868 32.7222 84.4323 31.7289C84.7777 30.7334 85.2687 29.8879 85.9096 29.1879C86.5483 28.4879 87.3279 27.956 88.2438 27.5924C89.1598 27.2287 90.1894 27.0469 91.3326 27.0469C92.4759 27.0469 93.4987 27.2287 94.4055 27.5924C95.3124 27.9583 96.0806 28.4742 96.7102 29.1447C97.3398 29.8152 97.8284 30.6266 98.1716 31.5835C98.5171 32.5381 98.6898 33.6063 98.6898 34.7882V36.0883H88.2597V36.3542C88.2597 37.3383 88.5643 38.1316 89.1757 38.7339C89.7871 39.3339 90.6826 39.6339 91.8645 39.6339C92.7691 39.6339 93.5487 39.4612 94.1987 39.1157C94.8487 38.7702 95.4101 38.3134 95.8829 37.7429L98.2466 40.3135C97.6557 41.0431 96.8284 41.6726 95.7647 42.2045C94.701 42.7363 93.3509 43.0023 91.7167 43.0023L91.7145 43ZM91.3599 30.1766C90.4144 30.1766 89.6621 30.4675 89.1007 31.0471C88.5393 31.6289 88.2575 32.4108 88.2575 33.3949V33.6313H94.4033V33.3949C94.4033 32.3903 94.1328 31.6039 93.5918 31.0312C93.0509 30.4607 92.3054 30.1743 91.3599 30.1743V30.1766Z" fill="#03CEA4"/>
</svg>
